<?xml version="1.0" encoding="UTF-8"?>
<!DOCTYPE svg PUBLIC "-//W3C//DTD SVG 1.1//EN" "http://www.w3.org/Graphics/SVG/1.1/DTD/svg11.dtd">
<svg xmlns="http://www.w3.org/2000/svg" version="1.1" width="50px" height="50px" style="shape-rendering:geometricPrecision; text-rendering:geometricPrecision; image-rendering:optimizeQuality; fill-rule:evenodd; clip-rule:evenodd" xmlns:xlink="http://www.w3.org/1999/xlink">
<g><path style="opacity:0.981" fill="#000000" d="M 18.5,2.5 C 22.5,2.5 26.5,2.5 30.5,2.5C 30.5,5.83333 30.5,9.16667 30.5,12.5C 26.5,12.5 22.5,12.5 18.5,12.5C 18.5,11.1667 18.5,9.83333 18.5,8.5C 9.99841,7.3379 6.66508,11.0046 8.5,19.5C 10.1667,19.5 11.8333,19.5 13.5,19.5C 13.5,22.8333 13.5,26.1667 13.5,29.5C 9.5,29.5 5.5,29.5 1.5,29.5C 1.5,26.1667 1.5,22.8333 1.5,19.5C 3.16667,19.5 4.83333,19.5 6.5,19.5C 3.65826,8.67793 7.65826,4.3446 18.5,6.5C 18.5,5.16667 18.5,3.83333 18.5,2.5 Z"/></g>
<g><path style="opacity:0.967" fill="#000000" d="M 32.5,6.5 C 36.0071,5.99353 39.1737,6.66019 42,8.5C 42.4986,12.1516 42.6653,15.8183 42.5,19.5C 44.1667,19.5 45.8333,19.5 47.5,19.5C 47.5,22.8333 47.5,26.1667 47.5,29.5C 43.5,29.5 39.5,29.5 35.5,29.5C 35.5,26.1667 35.5,22.8333 35.5,19.5C 37.1667,19.5 38.8333,19.5 40.5,19.5C 40.7399,16.4212 40.4066,13.4212 39.5,10.5C 36.8619,9.41741 34.5286,8.08408 32.5,6.5 Z"/></g>
<g><path style="opacity:0.967" fill="#000000" d="M 6.5,31.5 C 8.05358,33.8921 9.38691,36.5588 10.5,39.5C 13.0841,40.3928 15.7508,40.7261 18.5,40.5C 18.5,39.1667 18.5,37.8333 18.5,36.5C 22.5,36.5 26.5,36.5 30.5,36.5C 30.5,39.8333 30.5,43.1667 30.5,46.5C 26.5,46.5 22.5,46.5 18.5,46.5C 18.5,45.1667 18.5,43.8333 18.5,42.5C 8.67673,45.007 4.67673,41.3404 6.5,31.5 Z"/></g>
<g><path style="opacity:0.865" fill="#000000" d="M 40.5,31.5 C 45.0544,40.2919 42.3877,43.6253 32.5,41.5C 38.8746,41.1259 41.5413,37.7926 40.5,31.5 Z"/></g>
</svg>
