<?xml version="1.0" encoding="UTF-8"?>
<!DOCTYPE svg PUBLIC "-//W3C//DTD SVG 1.1//EN" "http://www.w3.org/Graphics/SVG/1.1/DTD/svg11.dtd">
<svg xmlns="http://www.w3.org/2000/svg" version="1.1" width="78px" height="78px" style="shape-rendering:geometricPrecision; text-rendering:geometricPrecision; image-rendering:optimizeQuality; fill-rule:evenodd; clip-rule:evenodd" xmlns:xlink="http://www.w3.org/1999/xlink">
<g><path style="opacity:0.944" fill="#000000" d="M 32.5,10.5 C 52.4497,9.79834 60.7831,19.465 57.5,39.5C 63.9525,40.3923 66.4525,44.059 65,50.5C 64.2155,52.286 63.0488,53.786 61.5,55C 53.9327,56.1349 46.2661,56.6349 38.5,56.5C 30.7339,56.6349 23.0673,56.1349 15.5,55C 10.6567,50.6204 10.3233,45.9538 14.5,41C 16.0249,39.9914 17.6916,39.4914 19.5,39.5C 19.1392,33.4067 19.6392,27.4067 21,21.5C 23.4123,16.2523 27.2456,12.5857 32.5,10.5 Z"/></g>
<g><path style="opacity:0.798" fill="#000000" d="M 30.5,57.5 C 35.8333,57.5 41.1667,57.5 46.5,57.5C 46.0282,65.1238 42.0282,67.9571 34.5,66C 31.1558,64.106 29.8224,61.2727 30.5,57.5 Z"/></g>
</svg>
