<?xml version="1.0" standalone="no"?>
<!DOCTYPE svg PUBLIC "-//W3C//DTD SVG 20010904//EN"
 "http://www.w3.org/TR/2001/REC-SVG-20010904/DTD/svg10.dtd">
<svg version="1.0" xmlns="http://www.w3.org/2000/svg"
 width="64.000000pt" height="64.000000pt" viewBox="0 0 64.000000 64.000000"
 preserveAspectRatio="xMidYMid meet">

<g transform="translate(0.000000,64.000000) scale(0.100000,-0.100000)"
fill="#000000" stroke="none">
<path d="M205 506 c-81 -38 -125 -97 -125 -168 0 -43 36 -114 70 -138 28 -20
28 -21 12 -49 -14 -24 -14 -32 -3 -45 19 -22 49 -20 107 8 27 13 74 29 105 35
187 39 250 212 118 325 -72 61 -193 75 -284 32z m54 -150 c22 -26 -10 -63 -44
-50 -15 6 -21 45 -8 57 11 12 40 8 52 -7z m89 -17 c3 -28 -16 -43 -43 -33 -15
6 -21 45 -8 58 16 16 48 1 51 -25z m90 0 c3 -28 -16 -43 -42 -33 -38 14 -22
68 18 62 14 -2 22 -12 24 -29z"/>
</g>
</svg>
